<mxfile host="app.diagrams.net" agent="Mozilla/5.0 (Windows NT 10.0; Win64; x64) AppleWebKit/537.36 (KHTML, like Gecko) Chrome/129.0.0.0 Safari/537.36" version="24.7.16">
  <diagram name="第 1 页" id="vrRxUIPaBHX0UUmL-tkq">
    <mxGraphModel dx="1628" dy="1993" grid="1" gridSize="10" guides="1" tooltips="1" connect="1" arrows="1" fold="1" page="1" pageScale="1" pageWidth="827" pageHeight="1169" math="0" shadow="0">
      <root>
        <mxCell id="0" />
        <mxCell id="1" parent="0" />
        <mxCell id="02rUWr7pG5b4yDuSuZ4g-1" value="" style="whiteSpace=wrap;html=1;aspect=fixed;" vertex="1" parent="1">
          <mxGeometry x="70" y="-20" width="650" height="650" as="geometry" />
        </mxCell>
        <mxCell id="02rUWr7pG5b4yDuSuZ4g-3" value="&lt;font style=&quot;font-size: 28px;&quot;&gt;Logo&lt;/font&gt;" style="whiteSpace=wrap;html=1;aspect=fixed;" vertex="1" parent="1">
          <mxGeometry x="80" y="-10" width="110" height="110" as="geometry" />
        </mxCell>
        <mxCell id="02rUWr7pG5b4yDuSuZ4g-4" value="&lt;font style=&quot;font-size: 28px;&quot;&gt;&lt;b&gt;Library&#39;s Name&lt;/b&gt;&lt;/font&gt;" style="rounded=1;whiteSpace=wrap;html=1;" vertex="1" parent="1">
          <mxGeometry x="210" y="-10" width="500" height="110" as="geometry" />
        </mxCell>
        <mxCell id="02rUWr7pG5b4yDuSuZ4g-5" value="&lt;font style=&quot;font-size: 24px;&quot;&gt;Book Catalog&lt;/font&gt;" style="rounded=0;whiteSpace=wrap;html=1;" vertex="1" parent="1">
          <mxGeometry x="80" y="120" width="150" height="60" as="geometry" />
        </mxCell>
        <mxCell id="02rUWr7pG5b4yDuSuZ4g-6" value="&lt;font style=&quot;font-size: 24px;&quot;&gt;Library Card&lt;/font&gt;" style="rounded=0;whiteSpace=wrap;html=1;" vertex="1" parent="1">
          <mxGeometry x="240" y="120" width="150" height="60" as="geometry" />
        </mxCell>
        <mxCell id="02rUWr7pG5b4yDuSuZ4g-7" value="&lt;font style=&quot;font-size: 24px;&quot;&gt;Inquiries&lt;/font&gt;" style="rounded=0;whiteSpace=wrap;html=1;" vertex="1" parent="1">
          <mxGeometry x="400" y="120" width="150" height="60" as="geometry" />
        </mxCell>
        <mxCell id="02rUWr7pG5b4yDuSuZ4g-8" value="&lt;font style=&quot;font-size: 24px;&quot;&gt;About&lt;/font&gt;" style="rounded=0;whiteSpace=wrap;html=1;" vertex="1" parent="1">
          <mxGeometry x="560" y="120" width="150" height="60" as="geometry" />
        </mxCell>
        <mxCell id="02rUWr7pG5b4yDuSuZ4g-10" value="&lt;font style=&quot;font-size: 28px;&quot;&gt;Slideshow for Library&#39;s News Photos&lt;/font&gt;" style="rounded=0;whiteSpace=wrap;html=1;" vertex="1" parent="1">
          <mxGeometry x="240" y="200" width="470" height="260" as="geometry" />
        </mxCell>
        <mxCell id="02rUWr7pG5b4yDuSuZ4g-14" value="" style="endArrow=none;html=1;rounded=0;entryX=0.016;entryY=0.999;entryDx=0;entryDy=0;entryPerimeter=0;exitX=1;exitY=0;exitDx=0;exitDy=0;" edge="1" parent="1" source="02rUWr7pG5b4yDuSuZ4g-10" target="02rUWr7pG5b4yDuSuZ4g-10">
          <mxGeometry width="50" height="50" relative="1" as="geometry">
            <mxPoint x="458.25" y="260" as="sourcePoint" />
            <mxPoint x="458.25" y="305.4422788605698" as="targetPoint" />
            <Array as="points" />
          </mxGeometry>
        </mxCell>
        <mxCell id="02rUWr7pG5b4yDuSuZ4g-16" value="" style="endArrow=none;html=1;rounded=0;entryX=1;entryY=1;entryDx=0;entryDy=0;exitX=0;exitY=0;exitDx=0;exitDy=0;" edge="1" parent="1" source="02rUWr7pG5b4yDuSuZ4g-10" target="02rUWr7pG5b4yDuSuZ4g-10">
          <mxGeometry width="50" height="50" relative="1" as="geometry">
            <mxPoint x="390" y="440" as="sourcePoint" />
            <mxPoint x="440" y="390" as="targetPoint" />
          </mxGeometry>
        </mxCell>
        <mxCell id="02rUWr7pG5b4yDuSuZ4g-17" value="&lt;font style=&quot;font-size: 18px;&quot;&gt;News Title 1&lt;/font&gt;" style="rounded=1;whiteSpace=wrap;html=1;" vertex="1" parent="1">
          <mxGeometry x="95" y="210" width="120" height="60" as="geometry" />
        </mxCell>
        <mxCell id="02rUWr7pG5b4yDuSuZ4g-18" value="&lt;font style=&quot;font-size: 18px;&quot;&gt;News Title 2&lt;/font&gt;" style="rounded=1;whiteSpace=wrap;html=1;" vertex="1" parent="1">
          <mxGeometry x="95" y="300" width="120" height="60" as="geometry" />
        </mxCell>
        <mxCell id="02rUWr7pG5b4yDuSuZ4g-19" value="&lt;font style=&quot;font-size: 18px;&quot;&gt;News Title 3&lt;/font&gt;" style="rounded=1;whiteSpace=wrap;html=1;" vertex="1" parent="1">
          <mxGeometry x="95" y="390" width="120" height="60" as="geometry" />
        </mxCell>
        <mxCell id="02rUWr7pG5b4yDuSuZ4g-20" value="&lt;font style=&quot;font-size: 24px;&quot;&gt;Address：&lt;/font&gt;&lt;div style=&quot;font-size: 24px;&quot;&gt;&lt;font style=&quot;font-size: 24px;&quot;&gt;Opening Hours：&lt;/font&gt;&lt;/div&gt;" style="rounded=0;whiteSpace=wrap;html=1;" vertex="1" parent="1">
          <mxGeometry x="95" y="480" width="615" height="60" as="geometry" />
        </mxCell>
        <mxCell id="02rUWr7pG5b4yDuSuZ4g-21" value="&lt;font style=&quot;font-size: 18px;&quot;&gt;Copyright&lt;/font&gt;" style="rounded=0;whiteSpace=wrap;html=1;" vertex="1" parent="1">
          <mxGeometry x="250" y="560" width="270" height="30" as="geometry" />
        </mxCell>
      </root>
    </mxGraphModel>
  </diagram>
</mxfile>
